<?xml version="1.0" encoding="utf-8" standalone="no"?>
<!DOCTYPE svg PUBLIC "-//W3C//DTD SVG 1.1//EN"
  "http://www.w3.org/Graphics/SVG/1.1/DTD/svg11.dtd">
<!-- Created with matplotlib (https://matplotlib.org/) -->
<svg height="280.512pt" version="1.1" viewBox="0 0 371.52 280.512" width="371.52pt" xmlns="http://www.w3.org/2000/svg" xmlns:xlink="http://www.w3.org/1999/xlink">
 <defs>
  <style type="text/css">
*{stroke-linecap:butt;stroke-linejoin:round;}
  </style>
 </defs>
 <g id="figure_1">
  <g id="patch_1">
   <path d="M 0 280.512 
L 371.52 280.512 
L 371.52 0 
L 0 0 
z
" style="fill:#ffffff;"/>
  </g>
  <g id="axes_1">
   <g id="line2d_1">
    <path clip-path="url(#p30ca44b463)" d="M 306.719401 140.256 
L 306.63311 138.732958 
L 306.374361 137.210158 
L 305.943524 135.687841 
L 305.341212 134.166248 
L 304.568286 132.64562 
L 303.625847 131.1262 
L 302.515241 129.608226 
L 301.238052 128.091941 
L 299.796102 126.577584 
L 298.191449 125.065396 
L 294.50342 122.048484 
L 290.195004 119.043119 
L 285.290781 116.051206 
L 279.81873 113.074643 
L 273.810068 110.115317 
L 267.299075 107.175105 
L 260.322896 104.255871 
L 252.92133 101.359467 
L 245.136602 98.487729 
L 232.83877 94.230351 
L 219.936968 90.03864 
L 206.596708 85.918578 
L 188.423979 80.546758 
L 161.181059 72.777123 
L 127.045646 63.023795 
L 111.795824 58.43488 
L 101.446886 55.12876 
L 92.179552 51.944095 
L 84.112707 48.88543 
L 79.453529 46.918482 
L 75.40082 45.010725 
L 71.977703 43.163368 
L 69.203705 41.377583 
L 67.094652 39.654502 
L 66.29339 38.816819 
L 65.662576 37.995218 
L 65.203111 37.189831 
L 64.915648 36.400783 
L 64.800599 35.628202 
L 64.858128 34.872209 
L 65.088153 34.132924 
L 65.490345 33.410465 
L 66.064131 32.704945 
L 66.808692 32.016477 
L 67.722965 31.345169 
L 70.055192 30.05446 
L 73.047507 28.833636 
L 76.682838 27.683471 
L 80.940445 26.604695 
L 85.79604 25.597991 
L 91.221921 24.663998 
L 97.187134 23.803308 
L 107.070962 22.650898 
L 117.964244 21.666282 
L 129.727234 20.850865 
L 142.20903 20.205809 
L 155.249508 19.732036 
L 168.681377 19.430221 
L 182.332326 19.300794 
L 196.027231 19.343942 
L 209.590407 19.559601 
L 222.847857 19.947464 
L 235.629506 20.506978 
L 247.771386 21.237345 
L 259.117731 22.137523 
L 269.522985 23.206226 
L 278.853662 24.441931 
L 284.417402 25.357652 
L 289.418295 26.346236 
L 293.827812 27.407057 
L 297.620798 28.539441 
L 300.775612 29.742671 
L 303.274257 31.015984 
L 305.102478 32.358572 
L 305.761769 33.05558 
L 306.249845 33.769584 
L 306.566009 34.500471 
L 306.709812 35.248125 
L 306.681047 36.012427 
L 306.479755 36.793257 
L 306.106224 37.59049 
L 305.560987 38.404 
L 304.844822 39.233658 
L 302.904035 40.940891 
L 300.294937 42.711105 
L 297.032411 44.543177 
L 293.135071 46.435946 
L 288.625151 48.388212 
L 283.52838 50.398736 
L 274.847358 53.520958 
L 265.023457 56.766929 
L 254.182701 60.132019 
L 238.388617 64.795779 
L 212.568992 72.146434 
L 180.810167 81.210229 
L 162.674278 86.600029 
L 149.395335 90.732444 
L 136.582884 94.935517 
L 124.401291 99.203251 
L 116.708271 102.081327 
L 109.409184 104.983611 
L 102.54567 107.908263 
L 96.156886 110.853429 
L 90.279279 113.817241 
L 84.946382 116.797819 
L 80.188618 119.793274 
L 76.033131 122.801704 
L 72.503627 125.821204 
L 70.980054 127.334506 
L 69.620242 128.849857 
L 68.426131 130.367017 
L 67.399426 131.885744 
L 66.54159 133.405798 
L 65.853848 134.926939 
L 65.337182 136.448924 
L 64.992327 137.971513 
L 64.819777 139.494464 
L 64.819777 141.017536 
L 64.992327 142.540487 
L 65.337182 144.063076 
L 65.853848 145.585061 
L 66.54159 147.106202 
L 67.399426 148.626256 
L 68.426131 150.144983 
L 69.620242 151.662143 
L 70.980054 153.177494 
L 72.503627 154.690796 
L 76.033131 157.710296 
L 80.188618 160.718726 
L 84.946382 163.714181 
L 90.279279 166.694759 
L 96.156886 169.658571 
L 102.54567 172.603737 
L 109.409184 175.528389 
L 116.708271 178.430673 
L 124.401291 181.308749 
L 136.582884 185.576483 
L 149.395335 189.779556 
L 162.674278 193.911971 
L 180.810167 199.301771 
L 208.095328 207.101514 
L 242.464164 216.900574 
L 257.900935 221.51462 
L 268.417582 224.840529 
L 277.873835 228.045757 
L 286.148381 231.12573 
L 290.955156 233.107282 
L 295.161787 235.029951 
L 298.744275 236.89252 
L 301.682183 238.693806 
L 303.95875 240.432667 
L 305.560987 242.108 
L 306.106224 242.92151 
L 306.479755 243.718743 
L 306.681047 244.499573 
L 306.709812 245.263875 
L 306.566009 246.011529 
L 306.249845 246.742416 
L 305.761769 247.45642 
L 305.102478 248.153428 
L 304.272913 248.833329 
L 302.107935 250.141383 
L 299.279188 251.379753 
L 295.802808 252.547653 
L 291.698629 253.644342 
L 286.990064 254.669126 
L 281.703977 255.621354 
L 275.870524 256.500423 
L 266.16764 257.680644 
L 255.433224 258.69333 
L 243.804984 259.537035 
L 231.432094 260.210554 
L 218.473279 260.712928 
L 205.094785 261.04344 
L 191.468236 261.201617 
L 177.768444 261.187234 
L 164.171157 261.000312 
L 150.850809 260.641118 
L 137.97828 260.110163 
L 125.718709 259.408206 
L 114.229367 258.536248 
L 103.657647 257.495533 
L 94.139168 256.287545 
L 88.439556 255.390133 
L 83.295148 254.419708 
L 78.735293 253.376885 
L 74.786007 252.262325 
L 71.469818 251.076737 
L 68.805647 249.820871 
L 66.808692 248.495523 
L 66.064131 247.807055 
L 65.490345 247.101535 
L 65.088153 246.379076 
L 64.858128 245.639791 
L 64.800599 244.883798 
L 64.915648 244.111217 
L 65.203111 243.322169 
L 65.662576 242.516782 
L 66.29339 241.695181 
L 67.094652 240.857498 
L 69.203705 239.134417 
L 71.977703 237.348632 
L 75.40082 235.501275 
L 79.453529 233.593518 
L 84.112707 231.62657 
L 89.351775 229.601679 
L 98.231425 226.458518 
L 108.233927 223.192367 
L 123.093601 218.65426 
L 143.633388 212.703412 
L 197.543961 197.297419 
L 215.530576 191.854967 
L 228.597243 187.68648 
L 241.114353 183.45032 
L 252.92133 179.152533 
L 260.322896 176.256129 
L 267.299075 173.336895 
L 273.810068 170.396683 
L 279.81873 167.437357 
L 285.290781 164.460794 
L 290.195004 161.468881 
L 294.50342 158.463516 
L 298.191449 155.446604 
L 299.796102 153.934416 
L 301.238052 152.420059 
L 302.515241 150.903774 
L 303.625847 149.3858 
L 304.568286 147.86638 
L 305.341212 146.345752 
L 305.943524 144.824159 
L 306.374361 143.301842 
L 306.63311 141.779042 
L 306.719401 140.256 
L 306.719401 140.256 
" style="fill:none;stroke:#808080;stroke-linecap:square;stroke-width:1.5;"/>
   </g>
   <g id="line2d_2">
    <defs>
     <path d="M 0 1.5 
C 0.397805 1.5 0.77937 1.341951 1.06066 1.06066 
C 1.341951 0.77937 1.5 0.397805 1.5 0 
C 1.5 -0.397805 1.341951 -0.77937 1.06066 -1.06066 
C 0.77937 -1.341951 0.397805 -1.5 0 -1.5 
C -0.397805 -1.5 -0.77937 -1.341951 -1.06066 -1.06066 
C -1.341951 -0.77937 -1.5 -0.397805 -1.5 0 
C -1.5 0.397805 -1.341951 0.77937 -1.06066 1.06066 
C -0.77937 1.341951 -0.397805 1.5 0 1.5 
z
" id="m2fdf02ff9c" style="stroke:#1f77b4;"/>
    </defs>
    <g clip-path="url(#p30ca44b463)">
     <use style="fill:#1f77b4;stroke:#1f77b4;" x="306.719401" xlink:href="#m2fdf02ff9c" y="140.256"/>
     <use style="fill:#1f77b4;stroke:#1f77b4;" x="306.63311" xlink:href="#m2fdf02ff9c" y="138.732958"/>
     <use style="fill:#1f77b4;stroke:#1f77b4;" x="306.374361" xlink:href="#m2fdf02ff9c" y="137.210158"/>
     <use style="fill:#1f77b4;stroke:#1f77b4;" x="305.943524" xlink:href="#m2fdf02ff9c" y="135.687841"/>
     <use style="fill:#1f77b4;stroke:#1f77b4;" x="305.341212" xlink:href="#m2fdf02ff9c" y="134.166248"/>
     <use style="fill:#1f77b4;stroke:#1f77b4;" x="304.568286" xlink:href="#m2fdf02ff9c" y="132.64562"/>
     <use style="fill:#1f77b4;stroke:#1f77b4;" x="303.625847" xlink:href="#m2fdf02ff9c" y="131.1262"/>
     <use style="fill:#1f77b4;stroke:#1f77b4;" x="302.515241" xlink:href="#m2fdf02ff9c" y="129.608226"/>
     <use style="fill:#1f77b4;stroke:#1f77b4;" x="301.238052" xlink:href="#m2fdf02ff9c" y="128.091941"/>
     <use style="fill:#1f77b4;stroke:#1f77b4;" x="299.796102" xlink:href="#m2fdf02ff9c" y="126.577584"/>
     <use style="fill:#1f77b4;stroke:#1f77b4;" x="298.191449" xlink:href="#m2fdf02ff9c" y="125.065396"/>
     <use style="fill:#1f77b4;stroke:#1f77b4;" x="296.426382" xlink:href="#m2fdf02ff9c" y="123.555616"/>
     <use style="fill:#1f77b4;stroke:#1f77b4;" x="294.50342" xlink:href="#m2fdf02ff9c" y="122.048484"/>
     <use style="fill:#1f77b4;stroke:#1f77b4;" x="292.425306" xlink:href="#m2fdf02ff9c" y="120.544239"/>
     <use style="fill:#1f77b4;stroke:#1f77b4;" x="290.195004" xlink:href="#m2fdf02ff9c" y="119.043119"/>
     <use style="fill:#1f77b4;stroke:#1f77b4;" x="287.815698" xlink:href="#m2fdf02ff9c" y="117.545362"/>
     <use style="fill:#1f77b4;stroke:#1f77b4;" x="282.623857" xlink:href="#m2fdf02ff9c" y="114.560888"/>
     <use style="fill:#1f77b4;stroke:#1f77b4;" x="276.879403" xlink:href="#m2fdf02ff9c" y="111.592708"/>
     <use style="fill:#1f77b4;stroke:#1f77b4;" x="270.615106" xlink:href="#m2fdf02ff9c" y="108.642705"/>
     <use style="fill:#1f77b4;stroke:#1f77b4;" x="263.866706" xlink:href="#m2fdf02ff9c" y="105.712749"/>
     <use style="fill:#1f77b4;stroke:#1f77b4;" x="249.074134" xlink:href="#m2fdf02ff9c" y="99.9204"/>
     <use style="fill:#1f77b4;stroke:#1f77b4;" x="232.83877" xlink:href="#m2fdf02ff9c" y="94.230351"/>
     <use style="fill:#1f77b4;stroke:#1f77b4;" x="197.543961" xlink:href="#m2fdf02ff9c" y="83.214581"/>
     <use style="fill:#1f77b4;stroke:#1f77b4;" x="98.231425" xlink:href="#m2fdf02ff9c" y="54.053482"/>
     <use style="fill:#1f77b4;stroke:#1f77b4;" x="86.661547" xlink:href="#m2fdf02ff9c" y="49.890712"/>
     <use style="fill:#1f77b4;stroke:#1f77b4;" x="81.708891" xlink:href="#m2fdf02ff9c" y="47.894635"/>
     <use style="fill:#1f77b4;stroke:#1f77b4;" x="77.349838" xlink:href="#m2fdf02ff9c" y="45.957128"/>
     <use style="fill:#1f77b4;stroke:#1f77b4;" x="73.609257" xlink:href="#m2fdf02ff9c" y="44.079422"/>
     <use style="fill:#1f77b4;stroke:#1f77b4;" x="71.977703" xlink:href="#m2fdf02ff9c" y="43.163368"/>
     <use style="fill:#1f77b4;stroke:#1f77b4;" x="70.508487" xlink:href="#m2fdf02ff9c" y="42.262707"/>
     <use style="fill:#1f77b4;stroke:#1f77b4;" x="69.203705" xlink:href="#m2fdf02ff9c" y="41.377583"/>
     <use style="fill:#1f77b4;stroke:#1f77b4;" x="68.065218" xlink:href="#m2fdf02ff9c" y="40.508135"/>
     <use style="fill:#1f77b4;stroke:#1f77b4;" x="67.094652" xlink:href="#m2fdf02ff9c" y="39.654502"/>
     <use style="fill:#1f77b4;stroke:#1f77b4;" x="66.29339" xlink:href="#m2fdf02ff9c" y="38.816819"/>
     <use style="fill:#1f77b4;stroke:#1f77b4;" x="65.662576" xlink:href="#m2fdf02ff9c" y="37.995218"/>
     <use style="fill:#1f77b4;stroke:#1f77b4;" x="65.203111" xlink:href="#m2fdf02ff9c" y="37.189831"/>
     <use style="fill:#1f77b4;stroke:#1f77b4;" x="64.915648" xlink:href="#m2fdf02ff9c" y="36.400783"/>
     <use style="fill:#1f77b4;stroke:#1f77b4;" x="64.800599" xlink:href="#m2fdf02ff9c" y="35.628202"/>
     <use style="fill:#1f77b4;stroke:#1f77b4;" x="64.858128" xlink:href="#m2fdf02ff9c" y="34.872209"/>
     <use style="fill:#1f77b4;stroke:#1f77b4;" x="65.088153" xlink:href="#m2fdf02ff9c" y="34.132924"/>
     <use style="fill:#1f77b4;stroke:#1f77b4;" x="65.490345" xlink:href="#m2fdf02ff9c" y="33.410465"/>
     <use style="fill:#1f77b4;stroke:#1f77b4;" x="66.064131" xlink:href="#m2fdf02ff9c" y="32.704945"/>
     <use style="fill:#1f77b4;stroke:#1f77b4;" x="66.808692" xlink:href="#m2fdf02ff9c" y="32.016477"/>
     <use style="fill:#1f77b4;stroke:#1f77b4;" x="67.722965" xlink:href="#m2fdf02ff9c" y="31.345169"/>
     <use style="fill:#1f77b4;stroke:#1f77b4;" x="68.805647" xlink:href="#m2fdf02ff9c" y="30.691129"/>
     <use style="fill:#1f77b4;stroke:#1f77b4;" x="70.055192" xlink:href="#m2fdf02ff9c" y="30.05446"/>
     <use style="fill:#1f77b4;stroke:#1f77b4;" x="71.469818" xlink:href="#m2fdf02ff9c" y="29.435263"/>
     <use style="fill:#1f77b4;stroke:#1f77b4;" x="73.047507" xlink:href="#m2fdf02ff9c" y="28.833636"/>
     <use style="fill:#1f77b4;stroke:#1f77b4;" x="74.786007" xlink:href="#m2fdf02ff9c" y="28.249675"/>
     <use style="fill:#1f77b4;stroke:#1f77b4;" x="76.682838" xlink:href="#m2fdf02ff9c" y="27.683471"/>
     <use style="fill:#1f77b4;stroke:#1f77b4;" x="80.940445" xlink:href="#m2fdf02ff9c" y="26.604695"/>
     <use style="fill:#1f77b4;stroke:#1f77b4;" x="85.79604" xlink:href="#m2fdf02ff9c" y="25.597991"/>
     <use style="fill:#1f77b4;stroke:#1f77b4;" x="97.187134" xlink:href="#m2fdf02ff9c" y="23.803308"/>
     <use style="fill:#1f77b4;stroke:#1f77b4;" x="110.596546" xlink:href="#m2fdf02ff9c" y="22.303975"/>
     <use style="fill:#1f77b4;stroke:#1f77b4;" x="125.718709" xlink:href="#m2fdf02ff9c" y="21.103794"/>
     <use style="fill:#1f77b4;stroke:#1f77b4;" x="159.691737" xlink:href="#m2fdf02ff9c" y="19.612298"/>
     <use style="fill:#1f77b4;stroke:#1f77b4;" x="196.027231" xlink:href="#m2fdf02ff9c" y="19.343942"/>
     <use style="fill:#1f77b4;stroke:#1f77b4;" x="231.432094" xlink:href="#m2fdf02ff9c" y="20.301446"/>
     <use style="fill:#1f77b4;stroke:#1f77b4;" x="262.697572" xlink:href="#m2fdf02ff9c" y="22.475102"/>
     <use style="fill:#1f77b4;stroke:#1f77b4;" x="275.870524" xlink:href="#m2fdf02ff9c" y="24.011577"/>
     <use style="fill:#1f77b4;stroke:#1f77b4;" x="286.990064" xlink:href="#m2fdf02ff9c" y="25.842874"/>
     <use style="fill:#1f77b4;stroke:#1f77b4;" x="291.698629" xlink:href="#m2fdf02ff9c" y="26.867658"/>
     <use style="fill:#1f77b4;stroke:#1f77b4;" x="295.802808" xlink:href="#m2fdf02ff9c" y="27.964347"/>
     <use style="fill:#1f77b4;stroke:#1f77b4;" x="297.620798" xlink:href="#m2fdf02ff9c" y="28.539441"/>
     <use style="fill:#1f77b4;stroke:#1f77b4;" x="299.279188" xlink:href="#m2fdf02ff9c" y="29.132247"/>
     <use style="fill:#1f77b4;stroke:#1f77b4;" x="300.775612" xlink:href="#m2fdf02ff9c" y="29.742671"/>
     <use style="fill:#1f77b4;stroke:#1f77b4;" x="302.107935" xlink:href="#m2fdf02ff9c" y="30.370617"/>
     <use style="fill:#1f77b4;stroke:#1f77b4;" x="303.274257" xlink:href="#m2fdf02ff9c" y="31.015984"/>
     <use style="fill:#1f77b4;stroke:#1f77b4;" x="304.272913" xlink:href="#m2fdf02ff9c" y="31.678671"/>
     <use style="fill:#1f77b4;stroke:#1f77b4;" x="305.102478" xlink:href="#m2fdf02ff9c" y="32.358572"/>
     <use style="fill:#1f77b4;stroke:#1f77b4;" x="305.761769" xlink:href="#m2fdf02ff9c" y="33.05558"/>
     <use style="fill:#1f77b4;stroke:#1f77b4;" x="306.249845" xlink:href="#m2fdf02ff9c" y="33.769584"/>
     <use style="fill:#1f77b4;stroke:#1f77b4;" x="306.566009" xlink:href="#m2fdf02ff9c" y="34.500471"/>
     <use style="fill:#1f77b4;stroke:#1f77b4;" x="306.709812" xlink:href="#m2fdf02ff9c" y="35.248125"/>
     <use style="fill:#1f77b4;stroke:#1f77b4;" x="306.681047" xlink:href="#m2fdf02ff9c" y="36.012427"/>
     <use style="fill:#1f77b4;stroke:#1f77b4;" x="306.479755" xlink:href="#m2fdf02ff9c" y="36.793257"/>
     <use style="fill:#1f77b4;stroke:#1f77b4;" x="306.106224" xlink:href="#m2fdf02ff9c" y="37.59049"/>
     <use style="fill:#1f77b4;stroke:#1f77b4;" x="305.560987" xlink:href="#m2fdf02ff9c" y="38.404"/>
     <use style="fill:#1f77b4;stroke:#1f77b4;" x="304.844822" xlink:href="#m2fdf02ff9c" y="39.233658"/>
     <use style="fill:#1f77b4;stroke:#1f77b4;" x="303.95875" xlink:href="#m2fdf02ff9c" y="40.079333"/>
     <use style="fill:#1f77b4;stroke:#1f77b4;" x="302.904035" xlink:href="#m2fdf02ff9c" y="40.940891"/>
     <use style="fill:#1f77b4;stroke:#1f77b4;" x="301.682183" xlink:href="#m2fdf02ff9c" y="41.818194"/>
     <use style="fill:#1f77b4;stroke:#1f77b4;" x="300.294937" xlink:href="#m2fdf02ff9c" y="42.711105"/>
     <use style="fill:#1f77b4;stroke:#1f77b4;" x="298.744275" xlink:href="#m2fdf02ff9c" y="43.61948"/>
     <use style="fill:#1f77b4;stroke:#1f77b4;" x="297.032411" xlink:href="#m2fdf02ff9c" y="44.543177"/>
     <use style="fill:#1f77b4;stroke:#1f77b4;" x="293.135071" xlink:href="#m2fdf02ff9c" y="46.435946"/>
     <use style="fill:#1f77b4;stroke:#1f77b4;" x="288.625151" xlink:href="#m2fdf02ff9c" y="48.388212"/>
     <use style="fill:#1f77b4;stroke:#1f77b4;" x="283.52838" xlink:href="#m2fdf02ff9c" y="50.398736"/>
     <use style="fill:#1f77b4;stroke:#1f77b4;" x="271.693774" xlink:href="#m2fdf02ff9c" y="54.589423"/>
     <use style="fill:#1f77b4;stroke:#1f77b4;" x="153.778127" xlink:href="#m2fdf02ff9c" y="89.346828"/>
     <use style="fill:#1f77b4;stroke:#1f77b4;" x="120.508233" xlink:href="#m2fdf02ff9c" y="100.639148"/>
     <use style="fill:#1f77b4;stroke:#1f77b4;" x="105.920472" xlink:href="#m2fdf02ff9c" y="106.443257"/>
     <use style="fill:#1f77b4;stroke:#1f77b4;" x="99.289593" xlink:href="#m2fdf02ff9c" y="109.378399"/>
     <use style="fill:#1f77b4;stroke:#1f77b4;" x="93.152019" xlink:href="#m2fdf02ff9c" y="112.333122"/>
     <use style="fill:#1f77b4;stroke:#1f77b4;" x="87.542766" xlink:href="#m2fdf02ff9c" y="115.305552"/>
     <use style="fill:#1f77b4;stroke:#1f77b4;" x="82.493833" xlink:href="#m2fdf02ff9c" y="118.293806"/>
     <use style="fill:#1f77b4;stroke:#1f77b4;" x="80.188618" xlink:href="#m2fdf02ff9c" y="119.793274"/>
     <use style="fill:#1f77b4;stroke:#1f77b4;" x="78.034026" xlink:href="#m2fdf02ff9c" y="121.295986"/>
     <use style="fill:#1f77b4;stroke:#1f77b4;" x="76.033131" xlink:href="#m2fdf02ff9c" y="122.801704"/>
     <use style="fill:#1f77b4;stroke:#1f77b4;" x="74.188787" xlink:href="#m2fdf02ff9c" y="124.31019"/>
     <use style="fill:#1f77b4;stroke:#1f77b4;" x="72.503627" xlink:href="#m2fdf02ff9c" y="125.821204"/>
     <use style="fill:#1f77b4;stroke:#1f77b4;" x="70.980054" xlink:href="#m2fdf02ff9c" y="127.334506"/>
     <use style="fill:#1f77b4;stroke:#1f77b4;" x="69.620242" xlink:href="#m2fdf02ff9c" y="128.849857"/>
     <use style="fill:#1f77b4;stroke:#1f77b4;" x="68.426131" xlink:href="#m2fdf02ff9c" y="130.367017"/>
     <use style="fill:#1f77b4;stroke:#1f77b4;" x="67.399426" xlink:href="#m2fdf02ff9c" y="131.885744"/>
     <use style="fill:#1f77b4;stroke:#1f77b4;" x="66.54159" xlink:href="#m2fdf02ff9c" y="133.405798"/>
     <use style="fill:#1f77b4;stroke:#1f77b4;" x="65.853848" xlink:href="#m2fdf02ff9c" y="134.926939"/>
     <use style="fill:#1f77b4;stroke:#1f77b4;" x="65.337182" xlink:href="#m2fdf02ff9c" y="136.448924"/>
     <use style="fill:#1f77b4;stroke:#1f77b4;" x="64.992327" xlink:href="#m2fdf02ff9c" y="137.971513"/>
     <use style="fill:#1f77b4;stroke:#1f77b4;" x="64.819777" xlink:href="#m2fdf02ff9c" y="139.494464"/>
     <use style="fill:#1f77b4;stroke:#1f77b4;" x="64.819777" xlink:href="#m2fdf02ff9c" y="141.017536"/>
     <use style="fill:#1f77b4;stroke:#1f77b4;" x="64.992327" xlink:href="#m2fdf02ff9c" y="142.540487"/>
     <use style="fill:#1f77b4;stroke:#1f77b4;" x="65.337182" xlink:href="#m2fdf02ff9c" y="144.063076"/>
     <use style="fill:#1f77b4;stroke:#1f77b4;" x="65.853848" xlink:href="#m2fdf02ff9c" y="145.585061"/>
     <use style="fill:#1f77b4;stroke:#1f77b4;" x="66.54159" xlink:href="#m2fdf02ff9c" y="147.106202"/>
     <use style="fill:#1f77b4;stroke:#1f77b4;" x="67.399426" xlink:href="#m2fdf02ff9c" y="148.626256"/>
     <use style="fill:#1f77b4;stroke:#1f77b4;" x="68.426131" xlink:href="#m2fdf02ff9c" y="150.144983"/>
     <use style="fill:#1f77b4;stroke:#1f77b4;" x="69.620242" xlink:href="#m2fdf02ff9c" y="151.662143"/>
     <use style="fill:#1f77b4;stroke:#1f77b4;" x="70.980054" xlink:href="#m2fdf02ff9c" y="153.177494"/>
     <use style="fill:#1f77b4;stroke:#1f77b4;" x="72.503627" xlink:href="#m2fdf02ff9c" y="154.690796"/>
     <use style="fill:#1f77b4;stroke:#1f77b4;" x="74.188787" xlink:href="#m2fdf02ff9c" y="156.20181"/>
     <use style="fill:#1f77b4;stroke:#1f77b4;" x="76.033131" xlink:href="#m2fdf02ff9c" y="157.710296"/>
     <use style="fill:#1f77b4;stroke:#1f77b4;" x="78.034026" xlink:href="#m2fdf02ff9c" y="159.216014"/>
     <use style="fill:#1f77b4;stroke:#1f77b4;" x="80.188618" xlink:href="#m2fdf02ff9c" y="160.718726"/>
     <use style="fill:#1f77b4;stroke:#1f77b4;" x="84.946382" xlink:href="#m2fdf02ff9c" y="163.714181"/>
     <use style="fill:#1f77b4;stroke:#1f77b4;" x="90.279279" xlink:href="#m2fdf02ff9c" y="166.694759"/>
     <use style="fill:#1f77b4;stroke:#1f77b4;" x="96.156886" xlink:href="#m2fdf02ff9c" y="169.658571"/>
     <use style="fill:#1f77b4;stroke:#1f77b4;" x="109.409184" xlink:href="#m2fdf02ff9c" y="175.528389"/>
     <use style="fill:#1f77b4;stroke:#1f77b4;" x="124.401291" xlink:href="#m2fdf02ff9c" y="181.308749"/>
     <use style="fill:#1f77b4;stroke:#1f77b4;" x="140.791576" xlink:href="#m2fdf02ff9c" y="186.98499"/>
     <use style="fill:#1f77b4;stroke:#1f77b4;" x="274.847358" xlink:href="#m2fdf02ff9c" y="226.991042"/>
     <use style="fill:#1f77b4;stroke:#1f77b4;" x="286.148381" xlink:href="#m2fdf02ff9c" y="231.12573"/>
     <use style="fill:#1f77b4;stroke:#1f77b4;" x="290.955156" xlink:href="#m2fdf02ff9c" y="233.107282"/>
     <use style="fill:#1f77b4;stroke:#1f77b4;" x="295.161787" xlink:href="#m2fdf02ff9c" y="235.029951"/>
     <use style="fill:#1f77b4;stroke:#1f77b4;" x="298.744275" xlink:href="#m2fdf02ff9c" y="236.89252"/>
     <use style="fill:#1f77b4;stroke:#1f77b4;" x="300.294937" xlink:href="#m2fdf02ff9c" y="237.800895"/>
     <use style="fill:#1f77b4;stroke:#1f77b4;" x="301.682183" xlink:href="#m2fdf02ff9c" y="238.693806"/>
     <use style="fill:#1f77b4;stroke:#1f77b4;" x="302.904035" xlink:href="#m2fdf02ff9c" y="239.571109"/>
     <use style="fill:#1f77b4;stroke:#1f77b4;" x="303.95875" xlink:href="#m2fdf02ff9c" y="240.432667"/>
     <use style="fill:#1f77b4;stroke:#1f77b4;" x="304.844822" xlink:href="#m2fdf02ff9c" y="241.278342"/>
     <use style="fill:#1f77b4;stroke:#1f77b4;" x="305.560987" xlink:href="#m2fdf02ff9c" y="242.108"/>
     <use style="fill:#1f77b4;stroke:#1f77b4;" x="306.106224" xlink:href="#m2fdf02ff9c" y="242.92151"/>
     <use style="fill:#1f77b4;stroke:#1f77b4;" x="306.479755" xlink:href="#m2fdf02ff9c" y="243.718743"/>
     <use style="fill:#1f77b4;stroke:#1f77b4;" x="306.681047" xlink:href="#m2fdf02ff9c" y="244.499573"/>
     <use style="fill:#1f77b4;stroke:#1f77b4;" x="306.709812" xlink:href="#m2fdf02ff9c" y="245.263875"/>
     <use style="fill:#1f77b4;stroke:#1f77b4;" x="306.566009" xlink:href="#m2fdf02ff9c" y="246.011529"/>
     <use style="fill:#1f77b4;stroke:#1f77b4;" x="306.249845" xlink:href="#m2fdf02ff9c" y="246.742416"/>
     <use style="fill:#1f77b4;stroke:#1f77b4;" x="305.761769" xlink:href="#m2fdf02ff9c" y="247.45642"/>
     <use style="fill:#1f77b4;stroke:#1f77b4;" x="305.102478" xlink:href="#m2fdf02ff9c" y="248.153428"/>
     <use style="fill:#1f77b4;stroke:#1f77b4;" x="304.272913" xlink:href="#m2fdf02ff9c" y="248.833329"/>
     <use style="fill:#1f77b4;stroke:#1f77b4;" x="303.274257" xlink:href="#m2fdf02ff9c" y="249.496016"/>
     <use style="fill:#1f77b4;stroke:#1f77b4;" x="302.107935" xlink:href="#m2fdf02ff9c" y="250.141383"/>
     <use style="fill:#1f77b4;stroke:#1f77b4;" x="300.775612" xlink:href="#m2fdf02ff9c" y="250.769329"/>
     <use style="fill:#1f77b4;stroke:#1f77b4;" x="299.279188" xlink:href="#m2fdf02ff9c" y="251.379753"/>
     <use style="fill:#1f77b4;stroke:#1f77b4;" x="297.620798" xlink:href="#m2fdf02ff9c" y="251.972559"/>
     <use style="fill:#1f77b4;stroke:#1f77b4;" x="295.802808" xlink:href="#m2fdf02ff9c" y="252.547653"/>
     <use style="fill:#1f77b4;stroke:#1f77b4;" x="293.827812" xlink:href="#m2fdf02ff9c" y="253.104943"/>
     <use style="fill:#1f77b4;stroke:#1f77b4;" x="289.418295" xlink:href="#m2fdf02ff9c" y="254.165764"/>
     <use style="fill:#1f77b4;stroke:#1f77b4;" x="284.417402" xlink:href="#m2fdf02ff9c" y="255.154348"/>
     <use style="fill:#1f77b4;stroke:#1f77b4;" x="272.758818" xlink:href="#m2fdf02ff9c" y="256.912346"/>
     <use style="fill:#1f77b4;stroke:#1f77b4;" x="259.117731" xlink:href="#m2fdf02ff9c" y="258.374477"/>
     <use style="fill:#1f77b4;stroke:#1f77b4;" x="243.804984" xlink:href="#m2fdf02ff9c" y="259.537035"/>
     <use style="fill:#1f77b4;stroke:#1f77b4;" x="209.590407" xlink:href="#m2fdf02ff9c" y="260.952399"/>
     <use style="fill:#1f77b4;stroke:#1f77b4;" x="173.215963" xlink:href="#m2fdf02ff9c" y="261.14409"/>
     <use style="fill:#1f77b4;stroke:#1f77b4;" x="137.97828" xlink:href="#m2fdf02ff9c" y="260.110163"/>
     <use style="fill:#1f77b4;stroke:#1f77b4;" x="107.070962" xlink:href="#m2fdf02ff9c" y="257.861102"/>
     <use style="fill:#1f77b4;stroke:#1f77b4;" x="94.139168" xlink:href="#m2fdf02ff9c" y="256.287545"/>
     <use style="fill:#1f77b4;stroke:#1f77b4;" x="88.439556" xlink:href="#m2fdf02ff9c" y="255.390133"/>
     <use style="fill:#1f77b4;stroke:#1f77b4;" x="83.295148" xlink:href="#m2fdf02ff9c" y="254.419708"/>
     <use style="fill:#1f77b4;stroke:#1f77b4;" x="78.735293" xlink:href="#m2fdf02ff9c" y="253.376885"/>
     <use style="fill:#1f77b4;stroke:#1f77b4;" x="74.786007" xlink:href="#m2fdf02ff9c" y="252.262325"/>
     <use style="fill:#1f77b4;stroke:#1f77b4;" x="73.047507" xlink:href="#m2fdf02ff9c" y="251.678364"/>
     <use style="fill:#1f77b4;stroke:#1f77b4;" x="71.469818" xlink:href="#m2fdf02ff9c" y="251.076737"/>
     <use style="fill:#1f77b4;stroke:#1f77b4;" x="70.055192" xlink:href="#m2fdf02ff9c" y="250.45754"/>
     <use style="fill:#1f77b4;stroke:#1f77b4;" x="68.805647" xlink:href="#m2fdf02ff9c" y="249.820871"/>
     <use style="fill:#1f77b4;stroke:#1f77b4;" x="67.722965" xlink:href="#m2fdf02ff9c" y="249.166831"/>
     <use style="fill:#1f77b4;stroke:#1f77b4;" x="66.808692" xlink:href="#m2fdf02ff9c" y="248.495523"/>
     <use style="fill:#1f77b4;stroke:#1f77b4;" x="66.064131" xlink:href="#m2fdf02ff9c" y="247.807055"/>
     <use style="fill:#1f77b4;stroke:#1f77b4;" x="65.490345" xlink:href="#m2fdf02ff9c" y="247.101535"/>
     <use style="fill:#1f77b4;stroke:#1f77b4;" x="65.088153" xlink:href="#m2fdf02ff9c" y="246.379076"/>
     <use style="fill:#1f77b4;stroke:#1f77b4;" x="64.858128" xlink:href="#m2fdf02ff9c" y="245.639791"/>
     <use style="fill:#1f77b4;stroke:#1f77b4;" x="64.800599" xlink:href="#m2fdf02ff9c" y="244.883798"/>
     <use style="fill:#1f77b4;stroke:#1f77b4;" x="64.915648" xlink:href="#m2fdf02ff9c" y="244.111217"/>
     <use style="fill:#1f77b4;stroke:#1f77b4;" x="65.203111" xlink:href="#m2fdf02ff9c" y="243.322169"/>
     <use style="fill:#1f77b4;stroke:#1f77b4;" x="65.662576" xlink:href="#m2fdf02ff9c" y="242.516782"/>
     <use style="fill:#1f77b4;stroke:#1f77b4;" x="66.29339" xlink:href="#m2fdf02ff9c" y="241.695181"/>
     <use style="fill:#1f77b4;stroke:#1f77b4;" x="67.094652" xlink:href="#m2fdf02ff9c" y="240.857498"/>
     <use style="fill:#1f77b4;stroke:#1f77b4;" x="68.065218" xlink:href="#m2fdf02ff9c" y="240.003865"/>
     <use style="fill:#1f77b4;stroke:#1f77b4;" x="69.203705" xlink:href="#m2fdf02ff9c" y="239.134417"/>
     <use style="fill:#1f77b4;stroke:#1f77b4;" x="70.508487" xlink:href="#m2fdf02ff9c" y="238.249293"/>
     <use style="fill:#1f77b4;stroke:#1f77b4;" x="71.977703" xlink:href="#m2fdf02ff9c" y="237.348632"/>
     <use style="fill:#1f77b4;stroke:#1f77b4;" x="73.609257" xlink:href="#m2fdf02ff9c" y="236.432578"/>
     <use style="fill:#1f77b4;stroke:#1f77b4;" x="75.40082" xlink:href="#m2fdf02ff9c" y="235.501275"/>
     <use style="fill:#1f77b4;stroke:#1f77b4;" x="79.453529" xlink:href="#m2fdf02ff9c" y="233.593518"/>
     <use style="fill:#1f77b4;stroke:#1f77b4;" x="84.112707" xlink:href="#m2fdf02ff9c" y="231.62657"/>
     <use style="fill:#1f77b4;stroke:#1f77b4;" x="95.140844" xlink:href="#m2fdf02ff9c" y="227.520129"/>
     <use style="fill:#1f77b4;stroke:#1f77b4;" x="211.081707" xlink:href="#m2fdf02ff9c" y="193.228394"/>
     <use style="fill:#1f77b4;stroke:#1f77b4;" x="245.136602" xlink:href="#m2fdf02ff9c" y="182.024271"/>
     <use style="fill:#1f77b4;stroke:#1f77b4;" x="260.322896" xlink:href="#m2fdf02ff9c" y="176.256129"/>
     <use style="fill:#1f77b4;stroke:#1f77b4;" x="273.810068" xlink:href="#m2fdf02ff9c" y="170.396683"/>
     <use style="fill:#1f77b4;stroke:#1f77b4;" x="279.81873" xlink:href="#m2fdf02ff9c" y="167.437357"/>
     <use style="fill:#1f77b4;stroke:#1f77b4;" x="285.290781" xlink:href="#m2fdf02ff9c" y="164.460794"/>
     <use style="fill:#1f77b4;stroke:#1f77b4;" x="290.195004" xlink:href="#m2fdf02ff9c" y="161.468881"/>
     <use style="fill:#1f77b4;stroke:#1f77b4;" x="292.425306" xlink:href="#m2fdf02ff9c" y="159.967761"/>
     <use style="fill:#1f77b4;stroke:#1f77b4;" x="294.50342" xlink:href="#m2fdf02ff9c" y="158.463516"/>
     <use style="fill:#1f77b4;stroke:#1f77b4;" x="296.426382" xlink:href="#m2fdf02ff9c" y="156.956384"/>
     <use style="fill:#1f77b4;stroke:#1f77b4;" x="298.191449" xlink:href="#m2fdf02ff9c" y="155.446604"/>
     <use style="fill:#1f77b4;stroke:#1f77b4;" x="299.796102" xlink:href="#m2fdf02ff9c" y="153.934416"/>
     <use style="fill:#1f77b4;stroke:#1f77b4;" x="301.238052" xlink:href="#m2fdf02ff9c" y="152.420059"/>
     <use style="fill:#1f77b4;stroke:#1f77b4;" x="302.515241" xlink:href="#m2fdf02ff9c" y="150.903774"/>
     <use style="fill:#1f77b4;stroke:#1f77b4;" x="303.625847" xlink:href="#m2fdf02ff9c" y="149.3858"/>
     <use style="fill:#1f77b4;stroke:#1f77b4;" x="304.568286" xlink:href="#m2fdf02ff9c" y="147.86638"/>
     <use style="fill:#1f77b4;stroke:#1f77b4;" x="305.341212" xlink:href="#m2fdf02ff9c" y="146.345752"/>
     <use style="fill:#1f77b4;stroke:#1f77b4;" x="305.943524" xlink:href="#m2fdf02ff9c" y="144.824159"/>
     <use style="fill:#1f77b4;stroke:#1f77b4;" x="306.374361" xlink:href="#m2fdf02ff9c" y="143.301842"/>
     <use style="fill:#1f77b4;stroke:#1f77b4;" x="306.63311" xlink:href="#m2fdf02ff9c" y="141.779042"/>
     <use style="fill:#1f77b4;stroke:#1f77b4;" x="306.719401" xlink:href="#m2fdf02ff9c" y="140.256"/>
    </g>
   </g>
   <g id="line2d_3">
    <defs>
     <path d="M 0 1.5 
C 0.397805 1.5 0.77937 1.341951 1.06066 1.06066 
C 1.341951 0.77937 1.5 0.397805 1.5 0 
C 1.5 -0.397805 1.341951 -0.77937 1.06066 -1.06066 
C 0.77937 -1.341951 0.397805 -1.5 0 -1.5 
C -0.397805 -1.5 -0.77937 -1.341951 -1.06066 -1.06066 
C -1.341951 -0.77937 -1.5 -0.397805 -1.5 0 
C -1.5 0.397805 -1.341951 0.77937 -1.06066 1.06066 
C -0.77937 1.341951 -0.397805 1.5 0 1.5 
z
" id="me7223748b5" style="stroke:#ff7f0e;"/>
    </defs>
    <g clip-path="url(#p30ca44b463)">
     <use style="fill:#ff7f0e;stroke:#ff7f0e;" x="306.719401" xlink:href="#me7223748b5" y="140.256"/>
     <use style="fill:#ff7f0e;stroke:#ff7f0e;" x="306.63311" xlink:href="#me7223748b5" y="138.732958"/>
     <use style="fill:#ff7f0e;stroke:#ff7f0e;" x="306.374361" xlink:href="#me7223748b5" y="137.210158"/>
     <use style="fill:#ff7f0e;stroke:#ff7f0e;" x="305.943524" xlink:href="#me7223748b5" y="135.687841"/>
     <use style="fill:#ff7f0e;stroke:#ff7f0e;" x="305.341212" xlink:href="#me7223748b5" y="134.166248"/>
     <use style="fill:#ff7f0e;stroke:#ff7f0e;" x="303.625847" xlink:href="#me7223748b5" y="131.1262"/>
     <use style="fill:#ff7f0e;stroke:#ff7f0e;" x="301.238052" xlink:href="#me7223748b5" y="128.091941"/>
     <use style="fill:#ff7f0e;stroke:#ff7f0e;" x="298.191449" xlink:href="#me7223748b5" y="125.065396"/>
     <use style="fill:#ff7f0e;stroke:#ff7f0e;" x="290.195004" xlink:href="#me7223748b5" y="119.043119"/>
     <use style="fill:#ff7f0e;stroke:#ff7f0e;" x="279.81873" xlink:href="#me7223748b5" y="113.074643"/>
     <use style="fill:#ff7f0e;stroke:#ff7f0e;" x="252.92133" xlink:href="#me7223748b5" y="101.359467"/>
     <use style="fill:#ff7f0e;stroke:#ff7f0e;" x="183.855028" xlink:href="#me7223748b5" y="79.22694"/>
     <use style="fill:#ff7f0e;stroke:#ff7f0e;" x="71.977703" xlink:href="#me7223748b5" y="43.163368"/>
     <use style="fill:#ff7f0e;stroke:#ff7f0e;" x="69.203705" xlink:href="#me7223748b5" y="41.377583"/>
     <use style="fill:#ff7f0e;stroke:#ff7f0e;" x="67.094652" xlink:href="#me7223748b5" y="39.654502"/>
     <use style="fill:#ff7f0e;stroke:#ff7f0e;" x="66.29339" xlink:href="#me7223748b5" y="38.816819"/>
     <use style="fill:#ff7f0e;stroke:#ff7f0e;" x="65.662576" xlink:href="#me7223748b5" y="37.995218"/>
     <use style="fill:#ff7f0e;stroke:#ff7f0e;" x="65.203111" xlink:href="#me7223748b5" y="37.189831"/>
     <use style="fill:#ff7f0e;stroke:#ff7f0e;" x="64.915648" xlink:href="#me7223748b5" y="36.400783"/>
     <use style="fill:#ff7f0e;stroke:#ff7f0e;" x="64.800599" xlink:href="#me7223748b5" y="35.628202"/>
     <use style="fill:#ff7f0e;stroke:#ff7f0e;" x="64.858128" xlink:href="#me7223748b5" y="34.872209"/>
     <use style="fill:#ff7f0e;stroke:#ff7f0e;" x="65.088153" xlink:href="#me7223748b5" y="34.132924"/>
     <use style="fill:#ff7f0e;stroke:#ff7f0e;" x="65.490345" xlink:href="#me7223748b5" y="33.410465"/>
     <use style="fill:#ff7f0e;stroke:#ff7f0e;" x="66.064131" xlink:href="#me7223748b5" y="32.704945"/>
     <use style="fill:#ff7f0e;stroke:#ff7f0e;" x="66.808692" xlink:href="#me7223748b5" y="32.016477"/>
     <use style="fill:#ff7f0e;stroke:#ff7f0e;" x="68.805647" xlink:href="#me7223748b5" y="30.691129"/>
     <use style="fill:#ff7f0e;stroke:#ff7f0e;" x="74.786007" xlink:href="#me7223748b5" y="28.249675"/>
     <use style="fill:#ff7f0e;stroke:#ff7f0e;" x="83.295148" xlink:href="#me7223748b5" y="26.092292"/>
     <use style="fill:#ff7f0e;stroke:#ff7f0e;" x="107.070962" xlink:href="#me7223748b5" y="22.650898"/>
     <use style="fill:#ff7f0e;stroke:#ff7f0e;" x="243.804984" xlink:href="#me7223748b5" y="20.974965"/>
     <use style="fill:#ff7f0e;stroke:#ff7f0e;" x="293.827812" xlink:href="#me7223748b5" y="27.407057"/>
     <use style="fill:#ff7f0e;stroke:#ff7f0e;" x="300.775612" xlink:href="#me7223748b5" y="29.742671"/>
     <use style="fill:#ff7f0e;stroke:#ff7f0e;" x="303.274257" xlink:href="#me7223748b5" y="31.015984"/>
     <use style="fill:#ff7f0e;stroke:#ff7f0e;" x="304.272913" xlink:href="#me7223748b5" y="31.678671"/>
     <use style="fill:#ff7f0e;stroke:#ff7f0e;" x="305.102478" xlink:href="#me7223748b5" y="32.358572"/>
     <use style="fill:#ff7f0e;stroke:#ff7f0e;" x="305.761769" xlink:href="#me7223748b5" y="33.05558"/>
     <use style="fill:#ff7f0e;stroke:#ff7f0e;" x="306.249845" xlink:href="#me7223748b5" y="33.769584"/>
     <use style="fill:#ff7f0e;stroke:#ff7f0e;" x="306.566009" xlink:href="#me7223748b5" y="34.500471"/>
     <use style="fill:#ff7f0e;stroke:#ff7f0e;" x="306.709812" xlink:href="#me7223748b5" y="35.248125"/>
     <use style="fill:#ff7f0e;stroke:#ff7f0e;" x="306.681047" xlink:href="#me7223748b5" y="36.012427"/>
     <use style="fill:#ff7f0e;stroke:#ff7f0e;" x="306.479755" xlink:href="#me7223748b5" y="36.793257"/>
     <use style="fill:#ff7f0e;stroke:#ff7f0e;" x="306.106224" xlink:href="#me7223748b5" y="37.59049"/>
     <use style="fill:#ff7f0e;stroke:#ff7f0e;" x="305.560987" xlink:href="#me7223748b5" y="38.404"/>
     <use style="fill:#ff7f0e;stroke:#ff7f0e;" x="303.95875" xlink:href="#me7223748b5" y="40.079333"/>
     <use style="fill:#ff7f0e;stroke:#ff7f0e;" x="301.682183" xlink:href="#me7223748b5" y="41.818194"/>
     <use style="fill:#ff7f0e;stroke:#ff7f0e;" x="298.744275" xlink:href="#me7223748b5" y="43.61948"/>
     <use style="fill:#ff7f0e;stroke:#ff7f0e;" x="90.279279" xlink:href="#me7223748b5" y="113.817241"/>
     <use style="fill:#ff7f0e;stroke:#ff7f0e;" x="80.188618" xlink:href="#me7223748b5" y="119.793274"/>
     <use style="fill:#ff7f0e;stroke:#ff7f0e;" x="72.503627" xlink:href="#me7223748b5" y="125.821204"/>
     <use style="fill:#ff7f0e;stroke:#ff7f0e;" x="69.620242" xlink:href="#me7223748b5" y="128.849857"/>
     <use style="fill:#ff7f0e;stroke:#ff7f0e;" x="67.399426" xlink:href="#me7223748b5" y="131.885744"/>
     <use style="fill:#ff7f0e;stroke:#ff7f0e;" x="65.853848" xlink:href="#me7223748b5" y="134.926939"/>
     <use style="fill:#ff7f0e;stroke:#ff7f0e;" x="65.337182" xlink:href="#me7223748b5" y="136.448924"/>
     <use style="fill:#ff7f0e;stroke:#ff7f0e;" x="64.992327" xlink:href="#me7223748b5" y="137.971513"/>
     <use style="fill:#ff7f0e;stroke:#ff7f0e;" x="64.819777" xlink:href="#me7223748b5" y="139.494464"/>
     <use style="fill:#ff7f0e;stroke:#ff7f0e;" x="64.819777" xlink:href="#me7223748b5" y="141.017536"/>
     <use style="fill:#ff7f0e;stroke:#ff7f0e;" x="64.992327" xlink:href="#me7223748b5" y="142.540487"/>
     <use style="fill:#ff7f0e;stroke:#ff7f0e;" x="65.337182" xlink:href="#me7223748b5" y="144.063076"/>
     <use style="fill:#ff7f0e;stroke:#ff7f0e;" x="66.54159" xlink:href="#me7223748b5" y="147.106202"/>
     <use style="fill:#ff7f0e;stroke:#ff7f0e;" x="68.426131" xlink:href="#me7223748b5" y="150.144983"/>
     <use style="fill:#ff7f0e;stroke:#ff7f0e;" x="70.980054" xlink:href="#me7223748b5" y="153.177494"/>
     <use style="fill:#ff7f0e;stroke:#ff7f0e;" x="74.188787" xlink:href="#me7223748b5" y="156.20181"/>
     <use style="fill:#ff7f0e;stroke:#ff7f0e;" x="82.493833" xlink:href="#me7223748b5" y="162.218194"/>
     <use style="fill:#ff7f0e;stroke:#ff7f0e;" x="105.920472" xlink:href="#me7223748b5" y="174.068743"/>
     <use style="fill:#ff7f0e;stroke:#ff7f0e;" x="293.135071" xlink:href="#me7223748b5" y="234.076054"/>
     <use style="fill:#ff7f0e;stroke:#ff7f0e;" x="300.294937" xlink:href="#me7223748b5" y="237.800895"/>
     <use style="fill:#ff7f0e;stroke:#ff7f0e;" x="302.904035" xlink:href="#me7223748b5" y="239.571109"/>
     <use style="fill:#ff7f0e;stroke:#ff7f0e;" x="304.844822" xlink:href="#me7223748b5" y="241.278342"/>
     <use style="fill:#ff7f0e;stroke:#ff7f0e;" x="305.560987" xlink:href="#me7223748b5" y="242.108"/>
     <use style="fill:#ff7f0e;stroke:#ff7f0e;" x="306.106224" xlink:href="#me7223748b5" y="242.92151"/>
     <use style="fill:#ff7f0e;stroke:#ff7f0e;" x="306.479755" xlink:href="#me7223748b5" y="243.718743"/>
     <use style="fill:#ff7f0e;stroke:#ff7f0e;" x="306.681047" xlink:href="#me7223748b5" y="244.499573"/>
     <use style="fill:#ff7f0e;stroke:#ff7f0e;" x="306.709812" xlink:href="#me7223748b5" y="245.263875"/>
     <use style="fill:#ff7f0e;stroke:#ff7f0e;" x="306.566009" xlink:href="#me7223748b5" y="246.011529"/>
     <use style="fill:#ff7f0e;stroke:#ff7f0e;" x="306.249845" xlink:href="#me7223748b5" y="246.742416"/>
     <use style="fill:#ff7f0e;stroke:#ff7f0e;" x="305.761769" xlink:href="#me7223748b5" y="247.45642"/>
     <use style="fill:#ff7f0e;stroke:#ff7f0e;" x="305.102478" xlink:href="#me7223748b5" y="248.153428"/>
     <use style="fill:#ff7f0e;stroke:#ff7f0e;" x="304.272913" xlink:href="#me7223748b5" y="248.833329"/>
     <use style="fill:#ff7f0e;stroke:#ff7f0e;" x="302.107935" xlink:href="#me7223748b5" y="250.141383"/>
     <use style="fill:#ff7f0e;stroke:#ff7f0e;" x="295.802808" xlink:href="#me7223748b5" y="252.547653"/>
     <use style="fill:#ff7f0e;stroke:#ff7f0e;" x="247.771386" xlink:href="#me7223748b5" y="259.274655"/>
     <use style="fill:#ff7f0e;stroke:#ff7f0e;" x="110.596546" xlink:href="#me7223748b5" y="258.208025"/>
     <use style="fill:#ff7f0e;stroke:#ff7f0e;" x="76.682838" xlink:href="#me7223748b5" y="252.828529"/>
     <use style="fill:#ff7f0e;stroke:#ff7f0e;" x="70.055192" xlink:href="#me7223748b5" y="250.45754"/>
     <use style="fill:#ff7f0e;stroke:#ff7f0e;" x="67.722965" xlink:href="#me7223748b5" y="249.166831"/>
     <use style="fill:#ff7f0e;stroke:#ff7f0e;" x="66.808692" xlink:href="#me7223748b5" y="248.495523"/>
     <use style="fill:#ff7f0e;stroke:#ff7f0e;" x="66.064131" xlink:href="#me7223748b5" y="247.807055"/>
     <use style="fill:#ff7f0e;stroke:#ff7f0e;" x="65.490345" xlink:href="#me7223748b5" y="247.101535"/>
     <use style="fill:#ff7f0e;stroke:#ff7f0e;" x="65.088153" xlink:href="#me7223748b5" y="246.379076"/>
     <use style="fill:#ff7f0e;stroke:#ff7f0e;" x="64.858128" xlink:href="#me7223748b5" y="245.639791"/>
     <use style="fill:#ff7f0e;stroke:#ff7f0e;" x="64.800599" xlink:href="#me7223748b5" y="244.883798"/>
     <use style="fill:#ff7f0e;stroke:#ff7f0e;" x="64.915648" xlink:href="#me7223748b5" y="244.111217"/>
     <use style="fill:#ff7f0e;stroke:#ff7f0e;" x="65.203111" xlink:href="#me7223748b5" y="243.322169"/>
     <use style="fill:#ff7f0e;stroke:#ff7f0e;" x="65.662576" xlink:href="#me7223748b5" y="242.516782"/>
     <use style="fill:#ff7f0e;stroke:#ff7f0e;" x="66.29339" xlink:href="#me7223748b5" y="241.695181"/>
     <use style="fill:#ff7f0e;stroke:#ff7f0e;" x="68.065218" xlink:href="#me7223748b5" y="240.003865"/>
     <use style="fill:#ff7f0e;stroke:#ff7f0e;" x="70.508487" xlink:href="#me7223748b5" y="238.249293"/>
     <use style="fill:#ff7f0e;stroke:#ff7f0e;" x="86.661547" xlink:href="#me7223748b5" y="230.621288"/>
     <use style="fill:#ff7f0e;stroke:#ff7f0e;" x="276.879403" xlink:href="#me7223748b5" y="168.919292"/>
     <use style="fill:#ff7f0e;stroke:#ff7f0e;" x="287.815698" xlink:href="#me7223748b5" y="162.966638"/>
     <use style="fill:#ff7f0e;stroke:#ff7f0e;" x="296.426382" xlink:href="#me7223748b5" y="156.956384"/>
     <use style="fill:#ff7f0e;stroke:#ff7f0e;" x="299.796102" xlink:href="#me7223748b5" y="153.934416"/>
     <use style="fill:#ff7f0e;stroke:#ff7f0e;" x="302.515241" xlink:href="#me7223748b5" y="150.903774"/>
     <use style="fill:#ff7f0e;stroke:#ff7f0e;" x="304.568286" xlink:href="#me7223748b5" y="147.86638"/>
     <use style="fill:#ff7f0e;stroke:#ff7f0e;" x="305.943524" xlink:href="#me7223748b5" y="144.824159"/>
     <use style="fill:#ff7f0e;stroke:#ff7f0e;" x="306.374361" xlink:href="#me7223748b5" y="143.301842"/>
     <use style="fill:#ff7f0e;stroke:#ff7f0e;" x="306.63311" xlink:href="#me7223748b5" y="141.779042"/>
     <use style="fill:#ff7f0e;stroke:#ff7f0e;" x="306.719401" xlink:href="#me7223748b5" y="140.256"/>
    </g>
   </g>
   <g id="legend_1">
    <g id="patch_2">
     <path d="M 142.91 163.773187 
L 228.61 163.773187 
Q 230.61 163.773187 230.61 161.773187 
L 230.61 118.738812 
Q 230.61 116.738812 228.61 116.738812 
L 142.91 116.738812 
Q 140.91 116.738812 140.91 118.738812 
L 140.91 161.773187 
Q 140.91 163.773187 142.91 163.773187 
z
" style="fill:#ffffff;opacity:0.8;stroke:#cccccc;stroke-linejoin:miter;"/>
    </g>
    <g id="line2d_4">
     <path d="M 144.91 124.83725 
L 164.91 124.83725 
" style="fill:none;stroke:#808080;stroke-linecap:square;stroke-width:1.5;"/>
    </g>
    <g id="line2d_5"/>
    <g id="text_1">
     <!-- Original -->
     <defs>
      <path d="M 39.40625 66.21875 
Q 28.65625 66.21875 22.328125 58.203125 
Q 16.015625 50.203125 16.015625 36.375 
Q 16.015625 22.609375 22.328125 14.59375 
Q 28.65625 6.59375 39.40625 6.59375 
Q 50.140625 6.59375 56.421875 14.59375 
Q 62.703125 22.609375 62.703125 36.375 
Q 62.703125 50.203125 56.421875 58.203125 
Q 50.140625 66.21875 39.40625 66.21875 
z
M 39.40625 74.21875 
Q 54.734375 74.21875 63.90625 63.9375 
Q 73.09375 53.65625 73.09375 36.375 
Q 73.09375 19.140625 63.90625 8.859375 
Q 54.734375 -1.421875 39.40625 -1.421875 
Q 24.03125 -1.421875 14.8125 8.828125 
Q 5.609375 19.09375 5.609375 36.375 
Q 5.609375 53.65625 14.8125 63.9375 
Q 24.03125 74.21875 39.40625 74.21875 
z
" id="DejaVuSans-79"/>
      <path d="M 41.109375 46.296875 
Q 39.59375 47.171875 37.8125 47.578125 
Q 36.03125 48 33.890625 48 
Q 26.265625 48 22.1875 43.046875 
Q 18.109375 38.09375 18.109375 28.8125 
L 18.109375 0 
L 9.078125 0 
L 9.078125 54.6875 
L 18.109375 54.6875 
L 18.109375 46.1875 
Q 20.953125 51.171875 25.484375 53.578125 
Q 30.03125 56 36.53125 56 
Q 37.453125 56 38.578125 55.875 
Q 39.703125 55.765625 41.0625 55.515625 
z
" id="DejaVuSans-114"/>
      <path d="M 9.421875 54.6875 
L 18.40625 54.6875 
L 18.40625 0 
L 9.421875 0 
z
M 9.421875 75.984375 
L 18.40625 75.984375 
L 18.40625 64.59375 
L 9.421875 64.59375 
z
" id="DejaVuSans-105"/>
      <path d="M 45.40625 27.984375 
Q 45.40625 37.75 41.375 43.109375 
Q 37.359375 48.484375 30.078125 48.484375 
Q 22.859375 48.484375 18.828125 43.109375 
Q 14.796875 37.75 14.796875 27.984375 
Q 14.796875 18.265625 18.828125 12.890625 
Q 22.859375 7.515625 30.078125 7.515625 
Q 37.359375 7.515625 41.375 12.890625 
Q 45.40625 18.265625 45.40625 27.984375 
z
M 54.390625 6.78125 
Q 54.390625 -7.171875 48.1875 -13.984375 
Q 42 -20.796875 29.203125 -20.796875 
Q 24.46875 -20.796875 20.265625 -20.09375 
Q 16.0625 -19.390625 12.109375 -17.921875 
L 12.109375 -9.1875 
Q 16.0625 -11.328125 19.921875 -12.34375 
Q 23.78125 -13.375 27.78125 -13.375 
Q 36.625 -13.375 41.015625 -8.765625 
Q 45.40625 -4.15625 45.40625 5.171875 
L 45.40625 9.625 
Q 42.625 4.78125 38.28125 2.390625 
Q 33.9375 0 27.875 0 
Q 17.828125 0 11.671875 7.65625 
Q 5.515625 15.328125 5.515625 27.984375 
Q 5.515625 40.671875 11.671875 48.328125 
Q 17.828125 56 27.875 56 
Q 33.9375 56 38.28125 53.609375 
Q 42.625 51.21875 45.40625 46.390625 
L 45.40625 54.6875 
L 54.390625 54.6875 
z
" id="DejaVuSans-103"/>
      <path d="M 54.890625 33.015625 
L 54.890625 0 
L 45.90625 0 
L 45.90625 32.71875 
Q 45.90625 40.484375 42.875 44.328125 
Q 39.84375 48.1875 33.796875 48.1875 
Q 26.515625 48.1875 22.3125 43.546875 
Q 18.109375 38.921875 18.109375 30.90625 
L 18.109375 0 
L 9.078125 0 
L 9.078125 54.6875 
L 18.109375 54.6875 
L 18.109375 46.1875 
Q 21.34375 51.125 25.703125 53.5625 
Q 30.078125 56 35.796875 56 
Q 45.21875 56 50.046875 50.171875 
Q 54.890625 44.34375 54.890625 33.015625 
z
" id="DejaVuSans-110"/>
      <path d="M 34.28125 27.484375 
Q 23.390625 27.484375 19.1875 25 
Q 14.984375 22.515625 14.984375 16.5 
Q 14.984375 11.71875 18.140625 8.90625 
Q 21.296875 6.109375 26.703125 6.109375 
Q 34.1875 6.109375 38.703125 11.40625 
Q 43.21875 16.703125 43.21875 25.484375 
L 43.21875 27.484375 
z
M 52.203125 31.203125 
L 52.203125 0 
L 43.21875 0 
L 43.21875 8.296875 
Q 40.140625 3.328125 35.546875 0.953125 
Q 30.953125 -1.421875 24.3125 -1.421875 
Q 15.921875 -1.421875 10.953125 3.296875 
Q 6 8.015625 6 15.921875 
Q 6 25.140625 12.171875 29.828125 
Q 18.359375 34.515625 30.609375 34.515625 
L 43.21875 34.515625 
L 43.21875 35.40625 
Q 43.21875 41.609375 39.140625 45 
Q 35.0625 48.390625 27.6875 48.390625 
Q 23 48.390625 18.546875 47.265625 
Q 14.109375 46.140625 10.015625 43.890625 
L 10.015625 52.203125 
Q 14.9375 54.109375 19.578125 55.046875 
Q 24.21875 56 28.609375 56 
Q 40.484375 56 46.34375 49.84375 
Q 52.203125 43.703125 52.203125 31.203125 
z
" id="DejaVuSans-97"/>
      <path d="M 9.421875 75.984375 
L 18.40625 75.984375 
L 18.40625 0 
L 9.421875 0 
z
" id="DejaVuSans-108"/>
     </defs>
     <g transform="translate(172.91 128.33725)scale(0.1 -0.1)">
      <use xlink:href="#DejaVuSans-79"/>
      <use x="78.710938" xlink:href="#DejaVuSans-114"/>
      <use x="119.824219" xlink:href="#DejaVuSans-105"/>
      <use x="147.607422" xlink:href="#DejaVuSans-103"/>
      <use x="211.083984" xlink:href="#DejaVuSans-105"/>
      <use x="238.867188" xlink:href="#DejaVuSans-110"/>
      <use x="302.246094" xlink:href="#DejaVuSans-97"/>
      <use x="363.525391" xlink:href="#DejaVuSans-108"/>
     </g>
    </g>
    <g id="line2d_6"/>
    <g id="line2d_7">
     <g>
      <use style="fill:#1f77b4;stroke:#1f77b4;" x="154.91" xlink:href="#m2fdf02ff9c" y="139.515375"/>
     </g>
    </g>
    <g id="text_2">
     <!-- $\kappa \, \mathrm{d}s=0.03$ -->
     <defs>
      <path d="M 14.65625 54.6875 
L 23.921875 54.6875 
L 19.484375 31.984375 
L 47.515625 54.6875 
L 58.453125 54.6875 
L 32.90625 34.078125 
L 51.171875 0 
L 40.1875 0 
L 25.4375 28.21875 
L 17.53125 21.921875 
L 13.28125 0 
L 4 0 
z
" id="DejaVuSans-Oblique-954"/>
      <path d="M 45.40625 46.390625 
L 45.40625 75.984375 
L 54.390625 75.984375 
L 54.390625 0 
L 45.40625 0 
L 45.40625 8.203125 
Q 42.578125 3.328125 38.25 0.953125 
Q 33.9375 -1.421875 27.875 -1.421875 
Q 17.96875 -1.421875 11.734375 6.484375 
Q 5.515625 14.40625 5.515625 27.296875 
Q 5.515625 40.1875 11.734375 48.09375 
Q 17.96875 56 27.875 56 
Q 33.9375 56 38.25 53.625 
Q 42.578125 51.265625 45.40625 46.390625 
z
M 14.796875 27.296875 
Q 14.796875 17.390625 18.875 11.75 
Q 22.953125 6.109375 30.078125 6.109375 
Q 37.203125 6.109375 41.296875 11.75 
Q 45.40625 17.390625 45.40625 27.296875 
Q 45.40625 37.203125 41.296875 42.84375 
Q 37.203125 48.484375 30.078125 48.484375 
Q 22.953125 48.484375 18.875 42.84375 
Q 14.796875 37.203125 14.796875 27.296875 
z
" id="DejaVuSans-100"/>
      <path d="M 50 53.078125 
L 48.296875 44.578125 
Q 44.734375 46.53125 40.765625 47.5 
Q 36.8125 48.484375 32.625 48.484375 
Q 25.53125 48.484375 21.453125 46.0625 
Q 17.390625 43.65625 17.390625 39.5 
Q 17.390625 34.671875 26.859375 32.078125 
Q 27.59375 31.890625 27.9375 31.78125 
L 30.8125 30.90625 
Q 39.796875 28.421875 42.796875 25.6875 
Q 45.796875 22.953125 45.796875 18.21875 
Q 45.796875 9.515625 38.890625 4.046875 
Q 31.984375 -1.421875 20.796875 -1.421875 
Q 16.453125 -1.421875 11.671875 -0.578125 
Q 6.890625 0.25 1.125 2 
L 2.875 11.28125 
Q 7.8125 8.734375 12.59375 7.421875 
Q 17.390625 6.109375 21.78125 6.109375 
Q 28.375 6.109375 32.5 8.9375 
Q 36.625 11.765625 36.625 16.109375 
Q 36.625 20.796875 25.78125 23.6875 
L 24.859375 23.921875 
L 21.78125 24.703125 
Q 14.9375 26.515625 11.765625 29.46875 
Q 8.59375 32.421875 8.59375 37.015625 
Q 8.59375 45.75 15.15625 50.875 
Q 21.734375 56 33.015625 56 
Q 37.453125 56 41.671875 55.265625 
Q 45.90625 54.546875 50 53.078125 
z
" id="DejaVuSans-Oblique-115"/>
      <path d="M 10.59375 45.40625 
L 73.1875 45.40625 
L 73.1875 37.203125 
L 10.59375 37.203125 
z
M 10.59375 25.484375 
L 73.1875 25.484375 
L 73.1875 17.1875 
L 10.59375 17.1875 
z
" id="DejaVuSans-61"/>
      <path d="M 31.78125 66.40625 
Q 24.171875 66.40625 20.328125 58.90625 
Q 16.5 51.421875 16.5 36.375 
Q 16.5 21.390625 20.328125 13.890625 
Q 24.171875 6.390625 31.78125 6.390625 
Q 39.453125 6.390625 43.28125 13.890625 
Q 47.125 21.390625 47.125 36.375 
Q 47.125 51.421875 43.28125 58.90625 
Q 39.453125 66.40625 31.78125 66.40625 
z
M 31.78125 74.21875 
Q 44.046875 74.21875 50.515625 64.515625 
Q 56.984375 54.828125 56.984375 36.375 
Q 56.984375 17.96875 50.515625 8.265625 
Q 44.046875 -1.421875 31.78125 -1.421875 
Q 19.53125 -1.421875 13.0625 8.265625 
Q 6.59375 17.96875 6.59375 36.375 
Q 6.59375 54.828125 13.0625 64.515625 
Q 19.53125 74.21875 31.78125 74.21875 
z
" id="DejaVuSans-48"/>
      <path d="M 10.6875 12.40625 
L 21 12.40625 
L 21 0 
L 10.6875 0 
z
" id="DejaVuSans-46"/>
      <path d="M 40.578125 39.3125 
Q 47.65625 37.796875 51.625 33 
Q 55.609375 28.21875 55.609375 21.1875 
Q 55.609375 10.40625 48.1875 4.484375 
Q 40.765625 -1.421875 27.09375 -1.421875 
Q 22.515625 -1.421875 17.65625 -0.515625 
Q 12.796875 0.390625 7.625 2.203125 
L 7.625 11.71875 
Q 11.71875 9.328125 16.59375 8.109375 
Q 21.484375 6.890625 26.8125 6.890625 
Q 36.078125 6.890625 40.9375 10.546875 
Q 45.796875 14.203125 45.796875 21.1875 
Q 45.796875 27.640625 41.28125 31.265625 
Q 36.765625 34.90625 28.71875 34.90625 
L 20.21875 34.90625 
L 20.21875 43.015625 
L 29.109375 43.015625 
Q 36.375 43.015625 40.234375 45.921875 
Q 44.09375 48.828125 44.09375 54.296875 
Q 44.09375 59.90625 40.109375 62.90625 
Q 36.140625 65.921875 28.71875 65.921875 
Q 24.65625 65.921875 20.015625 65.03125 
Q 15.375 64.15625 9.8125 62.3125 
L 9.8125 71.09375 
Q 15.4375 72.65625 20.34375 73.4375 
Q 25.25 74.21875 29.59375 74.21875 
Q 40.828125 74.21875 47.359375 69.109375 
Q 53.90625 64.015625 53.90625 55.328125 
Q 53.90625 49.265625 50.4375 45.09375 
Q 46.96875 40.921875 40.578125 39.3125 
z
" id="DejaVuSans-51"/>
     </defs>
     <g transform="translate(172.91 143.015375)scale(0.1 -0.1)">
      <use transform="translate(0 0.015625)" xlink:href="#DejaVuSans-Oblique-954"/>
      <use transform="translate(75.171223 0.015625)" xlink:href="#DejaVuSans-100"/>
      <use transform="translate(138.647786 0.015625)" xlink:href="#DejaVuSans-Oblique-115"/>
      <use transform="translate(210.229817 0.015625)" xlink:href="#DejaVuSans-61"/>
      <use transform="translate(313.501301 0.015625)" xlink:href="#DejaVuSans-48"/>
      <use transform="translate(377.124348 0.015625)" xlink:href="#DejaVuSans-46"/>
      <use transform="translate(408.911458 0.015625)" xlink:href="#DejaVuSans-48"/>
      <use transform="translate(472.534504 0.015625)" xlink:href="#DejaVuSans-51"/>
     </g>
    </g>
    <g id="line2d_8"/>
    <g id="line2d_9">
     <g>
      <use style="fill:#ff7f0e;stroke:#ff7f0e;" x="154.91" xlink:href="#me7223748b5" y="154.1935"/>
     </g>
    </g>
    <g id="text_3">
     <!-- $\kappa \, \mathrm{d}s=0.1$ -->
     <defs>
      <path d="M 12.40625 8.296875 
L 28.515625 8.296875 
L 28.515625 63.921875 
L 10.984375 60.40625 
L 10.984375 69.390625 
L 28.421875 72.90625 
L 38.28125 72.90625 
L 38.28125 8.296875 
L 54.390625 8.296875 
L 54.390625 0 
L 12.40625 0 
z
" id="DejaVuSans-49"/>
     </defs>
     <g transform="translate(172.91 157.6935)scale(0.1 -0.1)">
      <use transform="translate(0 0.015625)" xlink:href="#DejaVuSans-Oblique-954"/>
      <use transform="translate(75.171223 0.015625)" xlink:href="#DejaVuSans-100"/>
      <use transform="translate(138.647786 0.015625)" xlink:href="#DejaVuSans-Oblique-115"/>
      <use transform="translate(210.229817 0.015625)" xlink:href="#DejaVuSans-61"/>
      <use transform="translate(313.501301 0.015625)" xlink:href="#DejaVuSans-48"/>
      <use transform="translate(377.124348 0.015625)" xlink:href="#DejaVuSans-46"/>
      <use transform="translate(408.911458 0.015625)" xlink:href="#DejaVuSans-49"/>
     </g>
    </g>
   </g>
  </g>
 </g>
 <defs>
  <clipPath id="p30ca44b463">
   <rect height="266.112" width="357.12" x="7.2" y="7.2"/>
  </clipPath>
 </defs>
</svg>
